<!DOCTYPE svg PUBLIC "-//W3C//DTD SVG 1.1//EN" "http://www.w3.org/Graphics/SVG/1.1/DTD/svg11.dtd">
<!-- Uploaded to: SVG Repo, www.svgrepo.com, Transformed by: SVG Repo Mixer Tools -->
<svg width="256px" height="256px" viewBox="-2.4 -2.4 28.80 28.80" xmlns="http://www.w3.org/2000/svg" fill="#000000" transform="matrix(1, 0, 0, 1, 0, 0)rotate(0)" stroke="#000000">
<g id="SVGRepo_bgCarrier" stroke-width="0"/>
<g id="SVGRepo_tracerCarrier" stroke-linecap="round" stroke-linejoin="round" stroke="#ab4444" stroke-width="0.288"/>
<g id="SVGRepo_iconCarrier"> <defs> <style>.cls-1{fill:none;stroke:#000000;stroke-linecap:round;stroke-linejoin:round;stroke-width:1.5px;}</style> </defs> <g id="ic-contact-message"> <path class="cls-1" d="M19.89,3.25H4.11a2,2,0,0,0-2,2v9.06a2,2,0,0,0,2,2H5.75l2.31,4a.85.85,0,0,0,1.48,0l2.32-4h8a2,2,0,0,0,2-2V5.25A2,2,0,0,0,19.89,3.25Z"/> <line class="cls-1" x1="5.01" y1="7.86" x2="11.01" y2="7.86"/> <line class="cls-1" x1="5.01" y1="11.86" x2="18.01" y2="11.86"/> </g> </g>
</svg>